<svg width="10" height="8" viewBox="0 0 10 8" fill="none" xmlns="http://www.w3.org/2000/svg">
<path d="M3.44277 6.83827L3.44227 6.83778L0.882274 4.27778L0.882328 4.27772L0.876077 4.27168C0.860158 4.25631 0.847461 4.23792 0.838726 4.21759C0.829991 4.19725 0.825394 4.17538 0.825202 4.15325C0.825009 4.13112 0.829226 4.10917 0.837606 4.08869C0.845986 4.06821 0.858362 4.0496 0.874011 4.03395C0.889659 4.0183 0.908268 4.00593 0.928751 3.99755C0.949233 3.98917 0.97118 3.98495 0.99331 3.98514C1.01544 3.98534 1.03731 3.98993 1.05764 3.99867C1.07798 4.0074 1.09637 4.0201 1.11174 4.03602L1.11169 4.03607L1.11783 4.04222L3.2065 6.13088L3.56005 6.48444L3.91361 6.13088L8.87817 1.16632C8.90937 1.13721 8.95057 1.12116 8.99331 1.12153C9.03701 1.12191 9.07881 1.13944 9.10971 1.17034C9.14062 1.20124 9.15814 1.24304 9.15852 1.28674C9.15889 1.32948 9.14284 1.37068 9.11373 1.40188L3.67783 6.83778L3.67734 6.83827C3.66202 6.85363 3.64382 6.86581 3.62378 6.87412C3.60375 6.88242 3.58226 6.88668 3.56057 6.88666L3.55954 6.88666C3.53784 6.88668 3.51636 6.88242 3.49632 6.87412C3.47629 6.86581 3.45809 6.85363 3.44277 6.83827Z" fill="#171717" stroke="black"/>
</svg>
